<svg xmlns="http://www.w3.org/2000/svg" viewBox="0 0 249.53 518.95"><defs><style>.cls-1{fill:#fff;}</style></defs><title>Element 1</title><g id="Ebene_2" data-name="Ebene 2"><g id="Ebene_1-2" data-name="Ebene 1"><path class="cls-1" d="M249.44,396.77c.65-15.7-2.12-34.31-12.74-55.84-13.5-22.35-38.19-61-39.35-69.89s-10.42-19.16,1.54-49.67c-11.19,6.39-32.79,23.06-27.39,63.86,0,0-14.08-9.58-18.23-32.33s1.55-24.88,3.57-45.63c4.92-22.62,24.5-68.65,13.31-132.33C166,56.5,159,27.32,128.29,0c8.3,14.9,23.92,33.52,8.3,90.46-5.5,16.23-13.31,41.24-57,96.32-17.94,25-53.7,79.2-64.81,107C-3.83,344,.14,386.25.81,401c2.36,65.73,54.44,116.74,122.06,117.9l.23,0h2.07a131.42,131.42,0,0,0,16.22-1c18.84-2,36.38-7.39,52.18-18.43,33.71-21.1,56-57.33,56-98.5C249.53,399.59,249.49,398.18,249.44,396.77Zm-173.52-1A17.75,17.75,0,1,1,93.67,378,17.75,17.75,0,0,1,75.92,395.75Zm101.15,0A17.75,17.75,0,1,1,194.82,378,17.75,17.75,0,0,1,177.07,395.75Z"/></g></g></svg>