<svg xmlns="http://www.w3.org/2000/svg" viewBox="0 0 407.96 495.59"><defs><style>.cls-1{fill:#fff;}</style></defs><title>Element 9</title><g id="Ebene_2" data-name="Ebene 2"><g id="Ebene_1-2" data-name="Ebene 1"><path class="cls-1" d="M407.9,289.3V289l-7-42.07a6.32,6.32,0,0,0,0-.87L363.36,23.35a30.47,30.47,0,0,0-8.12-16.56A22.63,22.63,0,0,0,338.93,0h-270A22.63,22.63,0,0,0,52.61,6.79a30.54,30.54,0,0,0-8.12,16.56L.26,289A19.82,19.82,0,0,0,0,292.34a21,21,0,0,0,6.53,14.91,26.41,26.41,0,0,0,14,7.15,25.85,25.85,0,0,0,4.12.36H178.86V443.34h-43.7A45.26,45.26,0,0,0,90,488.5a7.08,7.08,0,0,0,7.09,7.09H310.75a7.09,7.09,0,0,0,7.1-7.09,45.26,45.26,0,0,0-45.16-45.21H232V314.71H383.16a25.85,25.85,0,0,0,4.12-.36,26.48,26.48,0,0,0,14.09-7.15,21,21,0,0,0,6.53-14.92A18.53,18.53,0,0,0,407.9,289.3ZM145.48,126.8a18.34,18.34,0,1,1,18.33-18.34A18.34,18.34,0,0,1,145.48,126.8Zm120,0a18.34,18.34,0,1,1,18.33-18.34A18.34,18.34,0,0,1,265.48,126.8Z"/></g></g></svg>