<svg xmlns="http://www.w3.org/2000/svg" viewBox="0 0 475.09 503.02"><defs><style>.cls-1{fill:#fff;}</style></defs><title>Element 4</title><g id="Ebene_2" data-name="Ebene 2"><g id="Ebene_1-2" data-name="Ebene 1"><path class="cls-1" d="M313.78,280.09c-12.49-11-139.09-9.89-152.48,0s-14.79,47.19-18.58,117C136.18,502.78,227.43,503.27,237.54,503c10.12.27,101.37-.22,94.83-105.94C328.58,327.28,326.27,291.07,313.78,280.09Z"/><path class="cls-1" d="M475,229.1c-2.08-33.22-9-105.21-74.75-171.65C318.43,2.93,297.68,6.11,238.93.28V0l-1.39.14L236.16,0V.28c-58.75,5.83-79.5,2.65-161.27,57.17C9.14,123.89,2.21,195.88.14,229.1s20.07,29.07,20.07,29.07,70.6.69,141.89,0c0,.05,0,.11,0,.16H313c0-.05,0-.11,0-.16,71.29.69,141.89,0,141.89,0S477,262.32,475,229.1ZM188,166.37a17.75,17.75,0,1,1,17.75-17.75A17.75,17.75,0,0,1,188,166.37Zm101.15,0a17.75,17.75,0,1,1,17.75-17.75A17.75,17.75,0,0,1,289.12,166.37Z"/></g></g></svg>