<svg xmlns="http://www.w3.org/2000/svg" viewBox="0 0 327.54 503.51"><defs><style>.cls-1{fill:#fff;}</style></defs><title>Element 8</title><g id="Ebene_2" data-name="Ebene 2"><g id="Ebene_1-2" data-name="Ebene 1"><path class="cls-1" d="M164,0h-.41C82.66.2.66,58.65,0,167.5c-.65,109,81,143.61,81,143.61s.17,34.24,0,54.19,22.83,28.33,22.83,28.33h120s23-8.37,22.83-28.33,0-54.19,0-54.19,81.61-34.57,81-143.61C326.88,58.65,244.88.2,164,0ZM113,177.5a17.75,17.75,0,1,1,17.75-17.75A17.75,17.75,0,0,1,113,177.5Zm101.15,0a17.75,17.75,0,1,1,17.75-17.75A17.74,17.74,0,0,1,214.14,177.5Z"/><path class="cls-1" d="M238,420.23c-26.6.5-74.06,0-74.06,0s-48.28.5-74.89,0c-19.21,11.33,0,29.07,0,29.07s10.35.49,20.2,0c7.47,53.64,49.79,54.29,54.28,54.2,4.48.09,46.81-.56,54.27-54.2,9.85.49,20.2,0,20.2,0S257.25,431.56,238,420.23Z"/></g></g></svg>