<svg xmlns="http://www.w3.org/2000/svg" viewBox="0 0 268.28 512"><defs><style>.cls-1{fill:#fff;}</style></defs><title>Element 12</title><g id="Ebene_2" data-name="Ebene 2"><g id="Ebene_1-2" data-name="Ebene 1"><path class="cls-1" d="M182,85.76V68.27h19.17c5.28,0,9.56-3.83,9.58-8.54V23.81c0-13.15-12-23.8-26.73-23.81H84.22C69.46,0,57.49,10.66,57.49,23.81V59.73c0,4.71,4.29,8.52,9.58,8.54H86.23V85.76C37.32,90.22.09,126.88,0,170.67V475.9C0,495.82,18.16,512,40.53,512H227.75c22.36,0,40.48-16.18,40.53-36.1V170.67C268.18,126.88,231,90.22,182,85.76ZM75.14,218.67A18.88,18.88,0,1,1,94,199.8,18.87,18.87,0,0,1,75.14,218.67Zm120,0A18.88,18.88,0,1,1,214,199.8,18.87,18.87,0,0,1,195.14,218.67Z"/></g></g></svg>