<svg xmlns="http://www.w3.org/2000/svg" viewBox="0 0 446.57 477.76"><defs><style>.cls-1{fill:#fff;}</style></defs><title>Element 2</title><g id="Ebene_2" data-name="Ebene 2"><g id="Ebene_1-2" data-name="Ebene 1"><path class="cls-1" d="M395.78,283.31c-25.29,0-55.34-5.89-63.83-22.42-5.05-9.83.12-20.58,5.34-27.87,19.63-27.4,30-58,30-88.37C367.3,64.89,302.7,0,223.28,0s-144,64.89-144,144.65c0,30.41,10.37,61,30,88.37,5.23,7.29,10.4,18,5.35,27.87-8.49,16.53-38.54,22.42-63.84,22.42a51,51,0,0,0,0,101.91c12.95,0,30.53-2.85,46.38-6.73-3.33,2.53-6.71,5.06-9.93,7.39C67.35,400.24,61,423.32,70.7,446.13A52.28,52.28,0,0,0,101.27,475a45.9,45.9,0,0,0,37.28-2.51c33.54-17.85,55.24-47.79,71.09-69.65,4.31-5.94,9.82-13.54,13.64-17.73,3.83,4.19,9.34,11.79,13.65,17.73,15.84,21.86,37.55,51.8,71.08,69.65a45.12,45.12,0,0,0,21.27,5.31,48,48,0,0,0,16-2.8,52.28,52.28,0,0,0,30.57-28.83c9.68-22.81,3.35-45.89-16.53-60.25-3.22-2.33-6.6-4.86-9.93-7.38,15.85,3.87,33.42,6.72,46.37,6.72a51,51,0,0,0,0-101.91ZM175.05,180.57a19.36,19.36,0,1,1,19-19.36A19.21,19.21,0,0,1,175.05,180.57Zm96.32.15a19.51,19.51,0,1,1,19.16-19.51A19.34,19.34,0,0,1,271.37,180.72Z"/></g></g></svg>