<svg xmlns="http://www.w3.org/2000/svg" viewBox="0 0 431.79 425.43"><defs><style>.cls-1{fill:#fff;}</style></defs><title>Element 11</title><g id="Ebene_2" data-name="Ebene 2"><g id="Ebene_1-2" data-name="Ebene 1"><path class="cls-1" d="M364.71,60.18A66.62,66.62,0,0,0,340,64.93l1.83-49.48A14.91,14.91,0,0,0,326.88,0h-312A14.91,14.91,0,0,0,0,15.45H0L13.83,388.7A14.93,14.93,0,0,0,27.25,403a14.52,14.52,0,0,0,1.48.07h.54l4.05,12.17a14.9,14.9,0,0,0,14.14,10.19H294.33a14.9,14.9,0,0,0,14.14-10.19l4.06-12.17h.53A14.91,14.91,0,0,0,328,388.7L331.62,290a67,67,0,0,0,100.17-58.33V127.26A67.15,67.15,0,0,0,364.71,60.18ZM95.9,127.92a17.75,17.75,0,1,1,17.74-17.75A17.75,17.75,0,0,1,95.9,127.92Zm140,0a17.75,17.75,0,1,1,17.74-17.75A17.75,17.75,0,0,1,235.9,127.92ZM402,231.62a37.26,37.26,0,0,1-68.93,19.64l5.58-150.59A37.24,37.24,0,0,1,402,127.26Z"/></g></g></svg>