<svg xmlns="http://www.w3.org/2000/svg" viewBox="0 0 516.56 516.56"><defs><style>.cls-1{fill:#fff;}</style></defs><title>Element 7</title><g id="Ebene_2" data-name="Ebene 2"><g id="Ebene_1-2" data-name="Ebene 1"><path class="cls-1" d="M258.28,80.07a21.78,21.78,0,0,0,22-22V22a22,22,0,0,0-43.91,0V58.11A21.77,21.77,0,0,0,258.28,80.07Z"/><path class="cls-1" d="M258.28,436.5a21.76,21.76,0,0,0-21.95,21.95v36.16a22,22,0,0,0,43.91,0V458.45A21.77,21.77,0,0,0,258.28,436.5Z"/><path class="cls-1" d="M494.61,236.33H458.45a22,22,0,0,0,0,43.91h36.16a22,22,0,0,0,0-43.91Z"/><path class="cls-1" d="M80.07,258.28a21.77,21.77,0,0,0-22-21.95H22a22,22,0,0,0,0,43.91H58.11A21.78,21.78,0,0,0,80.07,258.28Z"/><path class="cls-1" d="M415.19,132.37,441,106.54a21.92,21.92,0,1,0-31-31l-25.83,25.83a21.92,21.92,0,0,0,31,31Z"/><path class="cls-1" d="M101.38,384.19,75.55,410a21.92,21.92,0,0,0,31,31l25.83-25.83c8.39-8.4,8.39-22,0-31A22.22,22.22,0,0,0,101.38,384.19Z"/><path class="cls-1" d="M415.19,384.19a21.92,21.92,0,0,0-31,31L410,441a21.92,21.92,0,0,0,31-31Z"/><path class="cls-1" d="M101.38,132.37c8.39,8.39,22,8.39,31,0a22.22,22.22,0,0,0,0-31L106.54,75.55a21.91,21.91,0,0,0-31,31Z"/><path class="cls-1" d="M406.71,253.57c0-.48,0-1,0-1.44q-.07-1.71-.18-3.39l-.09-1.49c-.11-1.43-.23-2.86-.38-4.27-.07-.67-.15-1.34-.23-2s-.18-1.56-.28-2.33-.23-1.69-.35-2.53c-.08-.48-.16-1-.23-1.44A148.92,148.92,0,0,0,328.66,127.2c0,.11.07.22.1.33a148.52,148.52,0,1,0-74,279.22c1.18,0,2.36.05,3.55.05A148.41,148.41,0,0,0,406.66,264.46c.08-2,.13-4.11.13-6.18h0C406.79,256.7,406.76,255.14,406.71,253.57Zm-209.13-8.63a18.75,18.75,0,1,1,18.75-18.75A18.75,18.75,0,0,1,197.58,244.94Zm120,0a18.75,18.75,0,1,1,18.75-18.75A18.75,18.75,0,0,1,317.58,244.94Z"/></g></g></svg>