<svg xmlns="http://www.w3.org/2000/svg" viewBox="0 0 438.39 531.35"><defs><style>.cls-1{fill:#fff;}</style></defs><title>Element 5</title><g id="Ebene_2" data-name="Ebene 2"><g id="Ebene_1-2" data-name="Ebene 1"><path class="cls-1" d="M378.7,127.18c-23.15-12.94-26.68-13.73-43.15-17.65-2.36-22.75-4.71-88.26-98.07-109-98.07-8.24-117.68,93-117.29,108.26C86.45,111.49-15.93,139.68,2.12,284.06,10,324.89,86.85,415.11,189.62,372c-4.71,98.85-29.26,148.64-8.63,153.38s53.72,4.47,53.72,4.47,44.53,5.58,60.43-4.47-5.88-181.62-5.88-181.62,85.12,23.53,132.59-56.49S401.84,140.13,378.7,127.18ZM182.63,198.46a16.94,16.94,0,1,1,16.94-16.94A16.94,16.94,0,0,1,182.63,198.46Zm96.52,0a16.94,16.94,0,1,1,16.94-16.94A16.94,16.94,0,0,1,279.15,198.46Z"/></g></g></svg>